<?xml version="1.0" standalone="no"?>
<!DOCTYPE svg PUBLIC "-//W3C//DTD SVG 20010904//EN"
 "http://www.w3.org/TR/2001/REC-SVG-20010904/DTD/svg10.dtd">
<svg version="1.0" xmlns="http://www.w3.org/2000/svg"
 width="54.000000pt" height="54.000000pt" viewBox="0 0 54.000000 54.000000"
 preserveAspectRatio="xMidYMid meet">

<g transform="translate(0.000000,54.000000) scale(0.100000,-0.100000)"
fill="#000000" stroke="none">
<path d="M32 508 c-9 -9 -12 -76 -12 -239 0 -200 2 -228 17 -240 15 -12 16
-12 10 3 -4 12 1 23 16 33 31 21 38 19 27 -11 -6 -14 -10 -27 -10 -30 0 -2 94
-4 208 -4 148 0 211 3 220 12 9 9 12 73 12 226 0 186 -2 213 -15 208 -8 -3
-22 -9 -30 -12 -8 -3 -15 -2 -15 3 0 17 37 53 45 45 5 -4 5 -1 1 6 -10 17
-456 18 -474 0z m348 -19 c67 -14 67 -34 -1 -25 -72 10 -117 -7 -127 -46 -8
-33 -36 -58 -48 -45 -4 4 -2 13 4 19 7 7 12 24 12 38 0 26 20 52 50 63 24 9
56 8 110 -4z m67 -21 c-3 -8 -6 -5 -6 6 -1 11 2 17 5 13 3 -3 4 -12 1 -19z
m-302 -40 c14 -6 25 -19 25 -28 0 -9 31 -46 70 -83 52 -51 76 -67 98 -67 27 0
52 -15 52 -32 0 -4 -11 -8 -24 -8 -19 0 -26 -7 -31 -31 -6 -28 -8 -29 -21 -12
-7 10 -14 29 -14 43 0 33 -139 174 -162 165 -15 -6 -27 18 -28 53 0 15 3 15
35 0z m33 -100 c-3 -7 -21 -21 -41 -30 -50 -25 -61 -49 -53 -125 4 -36 3 -63
-3 -63 -13 0 -22 28 -28 97 -7 71 12 113 50 113 12 0 29 5 37 10 21 14 42 12
38 -2z m229 -20 c-3 -8 -6 -5 -6 6 -1 11 2 17 5 13 3 -3 4 -12 1 -19z m-320
-214 c-3 -3 -12 -4 -19 -1 -8 3 -5 6 6 6 11 1 17 -2 13 -5z"/>
</g>
</svg>
