<?xml version="1.0" standalone="no"?>
<!DOCTYPE svg PUBLIC "-//W3C//DTD SVG 20010904//EN"
 "http://www.w3.org/TR/2001/REC-SVG-20010904/DTD/svg10.dtd">
<svg version="1.0" xmlns="http://www.w3.org/2000/svg"
 width="135.000000pt" height="121.000000pt" viewBox="0 0 135.000000 121.000000"
 preserveAspectRatio="xMidYMid meet">

<g transform="translate(0.000000,121.000000) scale(0.100000,-0.100000)"
fill="#000000" stroke="none">
<path d="M357 1185 c-82 -28 -87 -32 -57 -43 25 -9 20 -16 -21 -25 -35 -9 -76
-43 -95 -80 -13 -23 -64 -222 -64 -246 0 -3 14 8 30 24 36 35 37 29 5 -69 -33
-101 -33 -149 0 -178 30 -26 31 -42 6 -91 -18 -36 -18 -37 -1 -37 10 0 30 4
44 10 22 8 26 7 26 -8 0 -31 -15 -41 -83 -57 -49 -11 -73 -13 -87 -5 -15 8
-24 6 -40 -10 -42 -42 -19 -80 49 -80 l45 0 -36 -37 c-20 -21 -43 -52 -52 -70
-18 -36 -21 -83 -6 -83 6 0 10 -11 10 -24 0 -42 11 -56 41 -56 16 0 29 -4 29
-10 0 -25 43 -4 121 59 l85 68 26 -36 26 -37 79 2 c80 2 109 10 132 38 12 14
16 14 42 -5 23 -16 46 -21 111 -22 98 -2 140 12 168 57 16 27 24 32 49 28 16
-2 32 1 35 7 4 6 16 11 26 11 11 0 30 14 42 31 13 16 37 39 54 50 30 18 31 21
23 65 -5 25 -12 50 -15 56 -5 8 3 9 26 4 18 -3 64 -9 101 -12 l67 -7 16 31 c8
16 21 32 28 34 22 8 -4 61 -39 83 -18 11 -35 27 -38 37 -9 26 -74 52 -142 56
-52 4 -63 7 -63 22 0 26 -31 59 -59 62 -24 3 -30 -7 -45 -75 -4 -16 -12 -27
-19 -24 -8 2 -11 26 -9 74 3 50 -1 80 -12 101 -9 17 -16 53 -16 79 0 53 -12
76 -74 141 -34 36 -37 42 -20 42 45 0 101 -56 142 -141 l40 -81 7 41 c12 70
-17 145 -81 208 -43 41 -50 53 -35 53 35 0 31 16 -10 40 -37 20 -45 21 -78 11
-30 -10 -41 -10 -66 3 -16 9 -43 16 -60 16 -16 0 -52 7 -79 15 -70 21 -150 18
-229 -10z m256 -19 c43 -17 87 -70 87 -104 l0 -25 -26 23 c-19 19 -27 21 -33
11 -6 -9 -18 -3 -44 26 -34 35 -35 38 -16 41 20 3 20 4 3 23 -20 23 -15 24 29
5z m237 -26 c12 -8 9 -10 -12 -10 -15 0 -30 5 -33 10 -8 13 25 13 45 0z m-239
-95 c78 -52 90 -73 27 -45 -24 10 -65 21 -93 24 -44 6 -41 4 25 -14 41 -11 77
-23 82 -28 4 -4 -46 -7 -110 -7 -116 0 -119 -1 -173 -34 -61 -37 -119 -87
-162 -141 l-27 -35 6 45 c4 25 11 54 17 65 22 42 84 107 126 132 41 24 43 27
26 39 -17 13 -17 14 1 21 10 4 45 7 77 8 51 0 56 1 40 13 -16 13 -13 14 25 9
29 -4 67 -21 113 -52z m276 11 c25 -22 26 -25 10 -31 -20 -8 -57 19 -57 42 0
20 15 16 47 -11z m-72 -83 c39 -40 41 -49 21 -97 -17 -40 -35 -54 -47 -35 -7
12 -9 11 -9 -1 -1 -9 -6 -6 -16 10 l-15 25 5 -27 6 -26 -50 19 c-28 10 -75 19
-106 19 -47 0 -59 -4 -81 -27 -14 -16 -34 -47 -45 -71 l-19 -43 -25 37 -26 37
57 84 c31 45 60 85 63 87 4 2 43 -1 87 -5 79 -8 81 -8 115 21 19 16 38 29 42
29 4 1 23 -15 43 -36z m-331 -37 c-17 -22 -154 -102 -154 -90 0 13 30 61 48
77 18 17 112 48 121 41 2 -2 -5 -14 -15 -28z m396 -105 c0 -11 -4 -23 -10 -26
-6 -4 -10 5 -10 19 0 14 5 26 10 26 6 0 10 -9 10 -19z m-180 -83 c0 -5 -11
-20 -25 -33 -38 -39 -126 -29 -124 13 0 14 3 13 16 -5 8 -13 21 -23 29 -23 16
0 27 34 19 59 -5 17 -2 18 40 8 25 -6 45 -14 45 -19z m210 -56 c0 -108 -42
-216 -88 -229 -42 -12 -193 -8 -234 6 -39 13 -115 95 -99 106 6 3 8 11 6 18
-2 7 -6 26 -9 43 l-5 31 42 -21 c26 -12 68 -22 108 -24 l67 -4 43 58 c24 32
47 62 50 67 3 5 20 -6 37 -23 26 -26 30 -35 22 -51 -6 -10 -7 -19 -2 -19 5 0
14 12 21 27 9 20 9 28 0 33 -8 6 -6 13 7 27 27 28 34 19 34 -45z m-580 -51 c0
-4 -18 -12 -40 -18 -45 -12 -51 -3 -25 35 15 21 17 21 40 6 14 -9 25 -19 25
-23z m-6 -37 c10 -4 16 -18 16 -40 0 -29 3 -34 24 -34 31 0 53 -25 30 -34 -27
-10 -64 -7 -95 9 -32 17 -56 62 -40 78 5 5 11 2 15 -11 7 -21 46 -61 46 -46 0
5 -7 17 -14 27 -8 10 -12 27 -9 37 6 22 6 22 27 14z m40 -40 c3 -8 2 -12 -4
-9 -6 3 -10 10 -10 16 0 14 7 11 14 -7z m581 -14 c18 -34 19 -89 4 -143 l-10
-39 -33 47 -34 46 20 52 c30 80 31 80 53 37z m-461 -93 c35 -45 47 -84 40
-123 l-6 -33 -30 15 c-16 8 -48 16 -71 17 l-42 2 -3 57 c-2 47 1 61 18 78 30
30 65 26 94 -13z m128 -33 c20 -23 28 -25 70 -19 40 6 48 4 57 -14 6 -11 11
-22 11 -25 0 -11 -57 -6 -101 9 -47 16 -103 54 -81 55 7 0 10 5 7 10 -13 21
16 9 37 -16z m53 -4 c-21 -8 -35 -4 -35 9 0 5 12 6 27 3 24 -5 25 -6 8 -12z
m145 13 c0 -5 -11 -21 -25 -38 l-24 -30 -1 26 c0 14 5 30 12 37 13 13 38 16
38 5z m-60 -13 c0 -5 -4 -10 -9 -10 -6 0 -13 5 -16 10 -3 6 1 10 9 10 9 0 16
-4 16 -10z m-440 -11 c0 -6 8 -8 20 -4 15 5 21 0 26 -20 3 -14 5 -28 3 -30 -2
-2 -23 8 -47 22 -32 19 -40 28 -30 34 18 12 28 11 28 -2z m674 -63 c0 -29 3
-42 9 -34 14 21 -2 -71 -19 -103 -8 -17 -23 -29 -34 -29 -23 0 -24 7 -10 81
25 134 56 183 54 85z m-498 -47 c67 -32 105 -108 84 -164 l-12 -30 -13 39 c-7
21 -27 56 -45 77 -17 21 -27 39 -21 39 5 0 19 -14 31 -31 12 -16 25 -28 28
-24 9 8 -59 74 -98 95 -50 27 -9 26 46 -1z m307 6 c1 -5 -6 -11 -15 -13 -11
-2 -18 3 -18 13 0 17 30 18 33 0z m17 -76 c0 -5 -7 -9 -15 -9 -15 0 -20 12 -9
23 8 8 24 -1 24 -14z m230 7 c0 -8 -31 -36 -40 -36 -4 0 -6 9 -3 20 4 16 43
30 43 16z m-415 -26 c0 -7 -6 -15 -12 -17 -8 -3 -13 4 -13 17 0 13 5 20 13 18
6 -3 12 -11 12 -18z m92 -27 c-6 -6 -47 19 -47 29 0 4 10 8 23 10 15 2 23 -3
25 -15 2 -10 1 -21 -1 -24z m-187 -44 c0 -33 -19 -59 -43 -59 -29 0 -53 15
-38 24 14 9 14 53 0 62 -8 5 -6 10 5 16 9 5 16 17 16 26 1 13 8 9 30 -16 17
-18 30 -42 30 -53z m260 27 c0 -3 -4 -8 -10 -11 -5 -3 -10 -1 -10 4 0 6 5 11
10 11 6 0 10 -2 10 -4z"/>
<path d="M587 583 c3 -7 28 -24 56 -38 70 -35 121 -33 180 6 26 17 47 34 47
38 0 3 -65 6 -144 6 -108 0 -142 -3 -139 -12z m218 -28 c-29 -24 -75 -32 -110
-19 -13 5 -14 8 -3 15 9 6 2 9 -19 9 -17 0 -35 5 -38 10 -4 6 31 10 97 10
l103 -1 -30 -24z"/>
<path d="M966 273 c-6 -14 -5 -15 5 -6 7 7 10 15 7 18 -3 3 -9 -2 -12 -12z"/>
</g>
</svg>
