<?xml version="1.0" standalone="no"?>
<!DOCTYPE svg PUBLIC "-//W3C//DTD SVG 20010904//EN"
 "http://www.w3.org/TR/2001/REC-SVG-20010904/DTD/svg10.dtd">
<svg version="1.0" xmlns="http://www.w3.org/2000/svg"
 width="1000.000000pt" height="841.000000pt" viewBox="0 0 1000.000000 841.000000"
 preserveAspectRatio="xMidYMid meet">

<g transform="translate(0.000000,841.000000) scale(0.100000,-0.100000)"
fill="#000000" stroke="none">
<path d="M6830 8404 c-197 -23 -303 -43 -450 -86 -312 -89 -681 -290 -821
-446 l-45 -49 -101 5 c-254 12 -613 -61 -962 -195 -629 -241 -1296 -622 -1718
-980 l-63 -54 -263 -35 c-242 -32 -271 -38 -380 -79 -91 -35 -122 -42 -140
-35 -12 5 -105 25 -207 45 -180 34 -191 35 -355 29 -176 -6 -228 -16 -315 -60
-168 -83 -260 -278 -231 -483 24 -170 122 -420 254 -651 45 -80 140 -245 211
-367 l128 -223 -35 -57 c-201 -335 -292 -804 -238 -1228 18 -141 25 -173 66
-274 25 -62 71 -163 101 -223 30 -61 53 -112 51 -115 -3 -2 -43 7 -88 21 -211
63 -472 118 -739 156 -166 23 -471 53 -477 46 -2 -2 64 -91 148 -197 333 -424
598 -788 854 -1174 239 -361 444 -703 560 -935 21 -41 97 -157 170 -256 73
-100 138 -192 145 -204 24 -46 82 -113 115 -136 19 -13 35 -20 35 -15 0 13
-275 563 -303 608 -14 21 -114 189 -222 373 -419 710 -529 885 -733 1165 -120
164 -293 381 -407 509 l-89 99 40 -5 c21 -4 194 -34 384 -67 277 -49 366 -69
450 -100 58 -21 148 -49 201 -61 94 -23 99 -25 180 -96 83 -72 83 -73 80 -116
-1 -23 -4 -44 -6 -46 -1 -2 -67 13 -146 32 -184 45 -319 65 -494 72 -132 6
-142 5 -165 -14 -25 -20 -25 -21 -4 -29 34 -13 288 -239 405 -360 253 -262
483 -585 515 -725 58 -247 257 -707 372 -858 l49 -65 17 -145 c20 -171 37
-220 75 -221 14 0 214 -19 444 -43 l418 -42 477 38 c468 37 478 38 545 67 37
17 87 46 110 64 69 56 142 92 332 163 99 36 225 89 280 116 228 114 668 297
1035 431 85 32 245 90 355 131 110 41 202 72 204 71 2 -2 -3 -51 -9 -109 l-13
-106 -36 -10 c-293 -78 -370 -105 -1009 -354 -376 -146 -743 -295 -817 -331
-73 -36 -136 -65 -139 -65 -3 0 -29 -14 -58 -32 l-52 -32 34 -8 c42 -10 370
-2 800 18 682 31 875 45 1095 75 121 17 261 34 310 37 l90 7 -2 50 c-13 400
-14 679 -4 744 41 262 152 488 318 646 90 87 148 117 291 152 81 20 269 22
362 4 154 -30 375 -122 519 -216 174 -113 353 -316 427 -484 23 -51 86 -272
80 -278 -1 -2 -18 17 -36 42 -47 63 -283 279 -328 301 -58 27 -119 29 -183 5
l-57 -22 3 -92 c2 -51 12 -146 24 -212 11 -66 25 -151 31 -190 23 -152 14
-135 75 -135 30 0 55 4 55 9 0 5 26 15 58 21 75 15 201 56 280 92 35 15 68 25
74 22 5 -4 32 15 59 42 l49 48 0 113 c0 92 -4 126 -25 192 -62 196 -142 328
-307 508 -41 44 -82 98 -92 120 l-18 40 127 254 127 254 232 235 c212 213 261
270 530 612 272 344 314 402 491 685 106 169 192 309 190 311 -3 3 -405 -70
-815 -148 -113 -22 -236 -48 -275 -60 -38 -11 -72 -16 -76 -12 -3 4 -23 39
-44 78 l-37 70 38 59 c134 210 296 676 379 1089 157 782 85 1469 -219 2075
-116 231 -244 410 -416 581 -316 317 -702 514 -1155 591 -115 19 -445 34 -535
23z m333 -154 c382 -28 703 -158 1076 -437 127 -96 299 -260 351 -337 42 -62
196 -365 239 -471 18 -44 42 -98 52 -120 21 -44 122 -377 149 -495 35 -146 45
-278 45 -560 0 -285 -6 -353 -52 -615 -76 -435 -254 -978 -364 -1107 l-28 -33
-40 41 -41 42 35 120 c68 239 127 606 165 1031 17 193 15 598 -4 751 -56 450
-177 825 -354 1095 -25 39 -56 86 -69 105 -12 19 -53 69 -90 111 -243 271
-549 449 -893 519 -125 25 -198 25 -685 -4 -423 -26 -451 -30 -645 -103 -52
-20 -100 -36 -106 -36 -6 0 -57 12 -113 28 -82 22 -100 30 -89 40 30 28 274
178 360 221 246 123 503 190 829 213 63 4 119 9 124 9 6 1 72 -3 148 -8z
m-1569 -619 c34 -5 102 -15 151 -21 50 -7 95 -16 100 -20 6 -4 41 -17 78 -29
76 -23 343 -168 455 -247 2 -1 14 -27 26 -58 13 -31 26 -53 30 -49 4 4 4 0 1
-9 -4 -9 -2 -19 4 -23 7 -4 11 -46 11 -107 0 -94 -9 -145 -31 -190 -5 -10 -9
-25 -9 -33 0 -15 -2 -21 -32 -80 -9 -16 -27 -64 -41 -105 -38 -112 -66 -186
-67 -176 0 12 -40 -40 -40 -53 0 -22 -96 -106 -148 -130 -29 -14 -52 -31 -53
-40 0 -10 -2 -11 -6 -4 -6 15 -81 -12 -101 -36 -7 -9 -16 -16 -20 -15 -23 3
-114 -54 -106 -67 3 -5 -1 -9 -8 -9 -7 0 -19 -13 -26 -29 -14 -32 -16 -42 -27
-118 -4 -29 -9 -53 -12 -53 -3 0 -34 20 -68 44 -76 55 -291 141 -407 163 -79
15 -199 14 -378 -2 -65 -6 -288 -69 -394 -112 -117 -46 -318 -147 -432 -215
-49 -30 -257 -174 -463 -321 -206 -147 -376 -265 -378 -263 -11 10 66 170 146
303 50 83 91 154 91 157 0 9 -70 -21 -108 -47 -64 -43 -200 -286 -218 -389 -3
-21 -9 -38 -13 -38 -14 0 -129 85 -209 153 -206 176 -363 395 -517 719 l-80
168 -3 -91 c-3 -113 23 -229 79 -344 85 -175 291 -411 489 -562 109 -82 267
-183 287 -183 15 0 332 210 509 337 239 172 513 331 719 419 60 25 186 66 280
90 l170 44 184 0 183 0 190 -61 c155 -50 203 -70 263 -111 66 -43 203 -177
242 -235 9 -13 16 -58 19 -120 l5 -98 -46 -58 c-57 -72 -141 -128 -229 -151
-36 -10 -64 -21 -62 -25 3 -4 -8 -8 -24 -9 -17 -1 -61 -14 -100 -28 -40 -14
-79 -22 -90 -19 -11 4 -42 26 -68 50 l-47 45 -180 -7 -180 -6 -230 -102 c-126
-57 -266 -121 -309 -144 -44 -22 -85 -41 -92 -41 -6 0 -14 -7 -18 -15 -3 -9
-12 -12 -22 -8 -9 3 -19 2 -23 -4 -8 -12 -162 -73 -185 -73 -9 0 -15 -4 -12
-9 3 -5 -9 -11 -27 -14 -17 -4 -57 -11 -87 -17 -30 -6 -71 -13 -90 -17 -19 -3
-39 -9 -45 -13 -5 -4 -32 -8 -58 -8 -26 -1 -53 -5 -60 -9 -7 -4 -37 -11 -67
-16 -223 -33 -452 -32 -531 1 -24 10 -50 17 -56 15 -7 -3 -13 0 -13 6 0 11
-99 67 -112 63 -5 -1 -8 3 -8 9 0 6 -7 8 -17 5 -10 -4 -14 -4 -10 0 4 4 -12
21 -35 38 -24 17 -59 46 -78 65 -19 18 -51 49 -70 67 -20 19 -38 34 -41 34 -4
0 -26 19 -50 43 -89 86 -165 147 -184 147 -12 0 -16 3 -9 8 9 5 8 11 -2 20 -8
7 -14 10 -14 6 0 -3 -13 8 -29 25 -20 22 -34 29 -47 24 -13 -5 -16 -3 -11 10
3 9 2 17 -3 17 -14 0 -42 24 -118 100 -36 36 -69 64 -74 62 -5 -1 -7 1 -4 6 3
5 -9 24 -26 43 -43 47 -130 165 -212 287 -38 56 -72 102 -76 102 -3 0 -26 -40
-50 -89 l-43 -89 -51 1 c-28 0 -63 -3 -78 -6 -16 -4 -39 -9 -53 -12 -14 -3
-23 -10 -20 -14 3 -5 0 -11 -6 -13 -23 -8 -49 -238 -31 -262 5 -6 10 -41 11
-77 1 -37 9 -102 17 -145 8 -44 19 -101 24 -127 5 -26 12 -57 15 -67 4 -11 8
-32 11 -47 4 -21 2 -24 -8 -15 -50 42 -445 740 -510 901 -39 95 -43 114 -42
186 0 60 7 101 28 163 49 144 118 209 256 238 65 13 108 14 325 5 138 -6 279
-16 315 -22 70 -13 47 -15 710 67 309 39 318 39 650 9 419 -37 774 -97 1272
-215 116 -27 213 -48 215 -46 8 8 -685 284 -792 315 -37 11 -234 38 -775 107
-113 14 -206 27 -208 29 -9 8 299 223 463 323 l100 60 175 -24 c160 -23 200
-33 468 -120 162 -52 361 -122 443 -155 153 -61 411 -143 430 -137 29 10 -257
191 -393 250 -227 98 -673 225 -878 251 l-104 13 47 26 c116 65 333 170 457
221 74 30 257 106 405 167 l270 111 140 10 c77 5 192 13 255 18 164 12 333 13
404 2z m951 -441 c3 -5 1 -10 -4 -10 -6 0 -11 5 -11 10 0 6 2 10 4 10 3 0 8
-4 11 -10z m70 -39 c3 -5 2 -12 -3 -15 -5 -3 -9 1 -9 9 0 17 3 19 12 6z m552
-683 c-3 -8 -6 -5 -6 6 -1 11 2 17 5 13 3 -3 4 -12 1 -19z m133 -671 c0 -5 -4
-5 -10 -2 -5 3 -10 14 -10 23 0 15 2 15 10 2 5 -8 10 -19 10 -23z m-310 -127
c0 -5 -2 -10 -4 -10 -3 0 -8 5 -11 10 -3 6 -1 10 4 10 6 0 11 -4 11 -10z
m-153 -115 c23 -27 46 -71 59 -112 63 -200 109 -250 642 -705 287 -245 364
-316 369 -339 3 -16 9 -26 13 -24 5 3 6 -4 3 -15 -3 -12 1 -22 11 -26 9 -3 16
-17 16 -29 0 -13 4 -26 8 -29 4 -2 23 -35 41 -71 19 -37 42 -72 52 -78 11 -7
19 -17 19 -24 0 -11 38 -82 50 -93 8 -8 65 -130 85 -185 27 -74 41 -280 25
-377 -7 -43 -10 -85 -6 -93 3 -9 2 -23 -3 -33 -5 -9 -15 -44 -21 -77 -6 -33
-16 -73 -20 -90 -5 -16 -19 -70 -30 -120 -12 -49 -26 -99 -31 -110 -5 -11 -10
-31 -13 -45 -2 -14 -12 -52 -22 -85 -24 -83 -46 -185 -46 -218 -1 -17 -4 -24
-8 -17 -5 8 -11 0 -15 -21 -4 -19 -12 -39 -17 -46 -5 -7 -8 -18 -6 -25 3 -7
-2 -19 -10 -27 -9 -9 -12 -25 -8 -43 4 -21 2 -28 -9 -28 -8 0 -15 -6 -15 -13
0 -7 -9 -32 -20 -55 -11 -22 -20 -48 -20 -57 0 -8 -4 -23 -9 -33 -27 -53 -33
-71 -26 -83 5 -7 4 -10 -2 -6 -8 5 -51 -92 -87 -196 -4 -12 -12 -16 -24 -13
-109 35 -217 50 -367 50 -248 1 -361 -33 -538 -163 l-109 -79 -66 19 c-37 10
-125 36 -196 56 -101 29 -145 47 -200 83 -194 128 -288 312 -273 531 3 54 18
116 50 210 46 134 63 169 192 393 80 138 95 177 96 249 2 62 -9 119 -21 112
-5 -3 -50 -73 -100 -157 -86 -142 -246 -366 -262 -367 -15 -2 -174 250 -224
354 -75 154 -96 240 -97 395 -1 137 10 201 53 296 33 73 87 135 149 172 41 24
55 27 131 25 57 -1 118 -10 185 -28 55 -15 111 -30 125 -33 14 -3 90 -49 170
-102 130 -87 163 -116 309 -266 l163 -169 -6 48 c-16 130 -114 255 -347 442
-146 117 -168 139 -158 152 25 29 165 104 244 129 117 38 262 44 374 16 101
-26 202 -74 297 -141 68 -47 130 -111 344 -355 86 -97 95 -105 98 -82 12 98
-256 446 -444 576 -135 94 -269 141 -436 155 l-88 7 -72 90 c-40 49 -92 113
-116 141 -55 67 -146 247 -163 321 -16 72 -3 158 35 242 56 122 249 364 290
364 8 0 32 -20 53 -45z m-352 5 c-3 -5 -12 -10 -18 -10 -7 0 -6 4 3 10 19 12
23 12 15 0z m-285 -196 c0 -8 -4 -12 -10 -9 -5 3 -10 13 -10 21 0 8 5 12 10 9
6 -3 10 -13 10 -21z m-4035 -115 c11 -16 1 -19 -13 -3 -7 8 -8 14 -3 14 5 0
13 -5 16 -11z m4112 -146 c-3 -10 -5 -4 -5 12 0 17 2 24 5 18 2 -7 2 -21 0
-30z m-4007 -4 c0 -6 -4 -7 -10 -4 -5 3 -10 11 -10 16 0 6 5 7 10 4 6 -3 10
-11 10 -16z m3957 -316 c-3 -10 -5 -4 -5 12 0 17 2 24 5 18 2 -7 2 -21 0 -30z
m-3682 -74 c11 -16 1 -19 -13 -3 -7 8 -8 14 -3 14 5 0 13 -5 16 -11z m2432
-55 c-3 -3 -12 -4 -19 -1 -8 3 -5 6 6 6 11 1 17 -2 13 -5z m-1199 -79 c-3 -3
-9 2 -12 12 -6 14 -5 15 5 6 7 -7 10 -15 7 -18z m-121 -60 c0 -8 -4 -12 -9 -9
-5 3 -6 10 -3 15 9 13 12 11 12 -6z m-1246 -22 c13 -16 12 -17 -3 -4 -17 13
-22 21 -14 21 2 0 10 -8 17 -17z m2963 -9 c3 -8 2 -12 -4 -9 -6 3 -10 10 -10
16 0 14 7 11 14 -7z m-3984 -14 c0 -5 -5 -10 -11 -10 -5 0 -7 5 -4 10 3 6 8
10 11 10 2 0 4 -4 4 -10z m2918 -15 c-3 -3 -9 2 -12 12 -6 14 -5 15 5 6 7 -7
10 -15 7 -18z m47 -34 c-6 -5 -25 10 -25 20 0 5 6 4 14 -3 8 -7 12 -15 11 -17z
m-2270 -33 c17 -16 33 -28 37 -28 3 0 28 -22 55 -48 26 -26 66 -61 88 -77 22
-16 67 -52 101 -79 99 -83 137 -111 146 -108 4 1 8 -2 8 -8 0 -5 6 -10 13 -10
7 0 18 -9 25 -20 8 -13 18 -17 29 -13 10 3 15 2 10 -2 -7 -8 73 -65 91 -65 5
0 29 -10 53 -23 24 -12 55 -24 69 -26 14 -1 33 -7 43 -13 42 -22 277 -45 277
-26 0 4 7 5 15 2 8 -4 21 -1 28 4 7 6 33 14 57 18 25 3 55 13 67 20 12 8 31
14 41 14 31 0 153 46 145 55 -5 4 3 5 16 2 14 -3 36 0 50 7 27 13 140 53 176
61 11 3 51 16 90 29 38 13 89 27 113 31 43 7 44 7 107 -59 47 -48 76 -89 106
-153 23 -48 46 -90 51 -91 4 -2 6 -8 2 -13 -3 -5 7 -35 21 -67 15 -31 31 -69
35 -84 8 -26 7 -27 -43 -32 -29 -3 -128 -10 -222 -16 -93 -6 -226 -15 -295
-21 -597 -46 -614 -46 -795 -24 -380 47 -609 110 -955 260 -96 42 -194 83
-216 92 l-42 16 36 81 c34 76 183 308 260 404 40 50 61 52 107 10z m726 5 c13
-16 12 -17 -3 -4 -17 13 -22 21 -14 21 2 0 10 -8 17 -17z m-1061 -93 c0 -5 -5
-10 -11 -10 -5 0 -7 5 -4 10 3 6 8 10 11 10 2 0 4 -4 4 -10z m877 -6 c-3 -3
-12 -4 -19 -1 -8 3 -5 6 6 6 11 1 17 -2 13 -5z m598 -25 c-4 -5 -12 -9 -18 -8
-9 0 -8 2 1 6 6 2 9 10 6 15 -4 7 -2 8 5 4 6 -4 9 -12 6 -17z m-1505 8 c0 -2
-10 -12 -22 -23 l-23 -19 19 23 c18 21 26 27 26 19z m1958 -22 c-3 -3 -9 2
-12 12 -6 14 -5 15 5 6 7 -7 10 -15 7 -18z m2589 -5 c-1 -21 -10 -18 -13 5 -1
8 2 15 6 15 5 0 8 -9 7 -20z m-4972 -10 c-5 -14 -2 -20 9 -20 9 0 16 -4 16
-10 0 -5 17 -12 38 -15 147 -23 163 -29 185 -59 49 -70 55 -88 38 -138 -9 -25
-22 -52 -28 -60 -7 -8 -10 -17 -7 -20 3 -3 -6 -70 -20 -149 -24 -132 -25 -155
-16 -269 14 -187 55 -313 157 -478 149 -243 313 -396 548 -515 145 -72 351
-138 520 -166 39 -7 84 -14 100 -17 129 -21 359 -33 465 -23 471 42 870 236
1131 549 152 182 230 348 275 586 9 49 20 97 25 106 5 11 4 46 -3 88 -11 64
-7 98 10 75 4 -6 77 -73 162 -150 217 -196 222 -202 266 -295 9 -19 19 -37 23
-40 9 -8 13 -44 18 -181 3 -100 0 -145 -16 -224 -12 -54 -21 -111 -21 -126 0
-15 -4 -30 -9 -33 -5 -3 -11 -20 -14 -38 -3 -18 -10 -51 -16 -73 -24 -83 -29
-108 -38 -168 -3 -20 -9 -40 -14 -43 -5 -3 -9 -16 -9 -29 0 -13 -4 -26 -9 -29
-10 -7 -26 -74 -22 -96 2 -8 0 -12 -5 -8 -4 4 -16 -18 -26 -50 -24 -74 -55
-156 -79 -210 -11 -24 -17 -47 -14 -51 3 -5 -1 -11 -8 -14 -6 -2 -18 -22 -25
-43 -15 -44 -22 -61 -51 -125 -12 -25 -21 -50 -21 -56 0 -6 -7 -16 -15 -23 -8
-7 -12 -16 -9 -21 3 -5 1 -9 -4 -9 -8 0 -30 -40 -38 -70 -10 -34 -18 -50 -23
-50 -10 0 -45 -72 -42 -87 1 -7 -2 -13 -7 -13 -4 0 -22 -28 -38 -62 -16 -35
-31 -65 -34 -68 -16 -16 -49 -88 -43 -94 4 -4 3 -10 -3 -14 -14 -9 -78 -122
-70 -122 3 0 -11 -25 -31 -56 -26 -40 -37 -67 -38 -95 0 -21 -3 -39 -7 -39 -5
0 -8 8 -8 18 0 10 -12 0 -29 -27 -17 -25 -28 -48 -26 -52 3 -4 -2 -9 -10 -13
-8 -3 -21 -18 -27 -33 -7 -15 -19 -33 -26 -38 -7 -6 -14 -18 -15 -27 -2 -9 -9
-24 -17 -33 -12 -14 -12 -18 1 -27 11 -7 9 -9 -8 -5 -16 3 -23 0 -23 -9 0 -8
-4 -14 -10 -14 -5 0 -10 -5 -10 -11 0 -16 -67 -101 -101 -127 -16 -13 -27 -28
-23 -33 3 -5 2 -9 -3 -8 -15 4 -43 -13 -37 -22 3 -5 2 -8 -3 -7 -14 4 -113
-57 -113 -69 0 -7 -10 -13 -23 -13 -27 0 -142 -43 -164 -62 -13 -10 -13 -14 3
-25 10 -7 13 -13 7 -13 -7 0 -15 5 -18 10 -4 7 -20 3 -43 -10 -35 -21 -40 -21
-241 -11 -113 6 -325 15 -471 21 -146 6 -342 15 -437 19 l-172 8 -40 32 -40
32 2 108 c2 89 -1 112 -15 127 -9 11 -33 60 -53 109 -21 50 -59 127 -86 173
-147 248 -259 545 -300 792 -24 143 -28 450 -6 450 8 0 40 -11 73 -24 l59 -24
6 -169 c9 -265 76 -546 202 -850 41 -99 45 -105 169 -232 l128 -131 127 0
c430 1 907 164 1152 394 104 99 357 407 683 832 l146 190 63 19 c82 25 319
111 327 120 15 15 -30 25 -118 25 -92 0 -236 -20 -430 -60 -52 -11 -196 -31
-320 -45 -209 -23 -268 -30 -470 -55 -364 -44 -360 -44 -597 -31 -126 6 -325
16 -443 22 -118 5 -247 14 -286 19 -103 14 -222 53 -359 119 -66 32 -144 66
-172 77 -51 17 -53 19 -53 56 0 25 6 44 19 55 17 14 18 18 6 27 -11 9 -12 32
-5 121 19 235 10 305 -40 305 -14 0 -21 -12 -29 -50 -6 -28 -11 -59 -11 -70 0
-34 -16 -30 -62 18 -100 103 -214 290 -275 452 -32 85 -82 279 -93 360 -8 61
-1 193 30 565 8 105 32 215 47 215 2 0 1 -9 -2 -20z m4742 -26 c-3 -3 -12 -4
-19 -1 -8 3 -5 6 6 6 11 1 17 -2 13 -5z m-2692 -94 c-3 -5 -14 -10 -23 -9 -14
0 -13 2 3 9 27 11 27 11 20 0z m1088 -40 c13 -15 14 -20 3 -20 -7 0 -16 9 -19
20 -3 11 -4 20 -3 20 1 0 9 -9 19 -20z m3882 -1 c11 -16 1 -19 -13 -3 -7 8 -8
14 -3 14 5 0 13 -5 16 -11z m-3657 -134 c-3 -3 -9 2 -12 12 -6 14 -5 15 5 6 7
-7 10 -15 7 -18z m4989 -164 c-253 -398 -478 -718 -679 -967 -233 -289 -343
-421 -345 -415 -2 3 21 85 50 181 l53 175 145 190 c80 105 169 224 198 265 30
41 70 93 91 115 59 64 183 253 176 270 -16 42 -225 -9 -405 -98 l-89 -45 -7
106 c-8 105 -8 106 18 128 26 22 117 54 154 54 15 0 204 35 593 109 52 10 96
17 97 16 2 -1 -21 -39 -50 -84z m-7788 -75 c241 -135 432 -201 821 -280 l155
-32 6 -70 c3 -38 13 -94 22 -124 37 -126 146 -258 257 -313 60 -30 72 -32 165
-32 83 0 115 5 188 29 106 35 195 90 237 147 39 54 69 153 77 251 6 77 6 78
37 83 48 8 301 43 397 55 47 5 148 26 225 44 76 19 142 31 146 28 11 -11 -27
-160 -65 -254 -47 -115 -160 -269 -296 -399 -148 -143 -260 -212 -471 -292
-225 -85 -207 -82 -570 -79 -498 4 -602 18 -835 111 -363 145 -629 440 -710
789 -28 119 -12 442 21 442 4 0 91 -47 193 -104z m6731 80 c0 -3 -4 -8 -10
-11 -5 -3 -10 -1 -10 4 0 6 5 11 10 11 6 0 10 -2 10 -4z m-4233 -158 c-3 -8
-6 -5 -6 6 -1 11 2 17 5 13 3 -3 4 -12 1 -19z m60 16 c-3 -3 -12 -4 -19 -1 -8
3 -5 6 6 6 11 1 17 -2 13 -5z m4240 -181 c-2 -16 -4 -5 -4 22 0 28 2 40 4 28
2 -13 2 -35 0 -50z m-3039 -418 c-3 -3 -9 2 -12 12 -6 14 -5 15 5 6 7 -7 10
-15 7 -18z m49 -137 c-3 -8 -6 -5 -6 6 -1 11 2 17 5 13 3 -3 4 -12 1 -19z
m2829 -383 c1 -8 -2 -15 -6 -15 -5 0 -8 9 -7 20 1 21 10 18 13 -5z m-116 -295
c0 -5 -5 -10 -11 -10 -5 0 -7 5 -4 10 3 6 8 10 11 10 2 0 4 -4 4 -10z m-2557
-65 c-3 -9 -8 -14 -10 -11 -3 3 -2 9 2 15 9 16 15 13 8 -4z m32 -84 c3 -5 2
-12 -3 -15 -5 -3 -9 1 -9 9 0 17 3 19 12 6z m-1555 -208 c-86 -92 -164 -192
-267 -341 -151 -219 -308 -401 -430 -500 -174 -140 -429 -253 -680 -302 -86
-17 -436 -54 -438 -47 -1 1 -46 63 -102 138 -55 75 -108 150 -117 167 -28 55
-76 192 -76 219 0 24 2 25 38 20 87 -14 584 -19 757 -8 242 16 324 31 495 91
l145 50 -120 -5 c-66 -3 -271 -10 -455 -15 -184 -5 -414 -12 -511 -16 l-176
-6 -8 49 c-4 26 -33 150 -65 276 l-58 227 32 0 c17 0 184 -16 371 -35 354 -36
490 -42 634 -25 47 5 181 17 296 25 374 28 415 34 685 90 119 25 120 24 50
-52z m3527 51 c-3 -3 -12 -4 -19 -1 -8 3 -5 6 6 6 11 1 17 -2 13 -5z m-2307
-219 c0 -2 -6 -5 -13 -8 -8 -3 -14 1 -14 8 0 7 6 11 14 8 7 -3 13 -6 13 -8z
m-700 -359 c0 -2 -7 -7 -16 -10 -8 -3 -12 -2 -9 4 6 10 25 14 25 6z m-110
-151 c0 -8 -2 -15 -4 -15 -2 0 -6 7 -10 15 -3 8 -1 15 4 15 6 0 10 -7 10 -15z
m124 -11 c3 -8 2 -12 -4 -9 -6 3 -10 10 -10 16 0 14 7 11 14 -7z m-254 -148
c0 -3 -4 -8 -10 -11 -5 -3 -10 -1 -10 4 0 6 5 11 10 11 6 0 10 -2 10 -4z m31
-19 c-10 -9 -11 -8 -5 6 3 10 9 15 12 12 3 -3 0 -11 -7 -18z m219 -51 c0 -2
-7 -7 -16 -10 -8 -3 -12 -2 -9 4 6 10 25 14 25 6z m70 -310 c0 -2 -7 -7 -16
-10 -8 -3 -12 -2 -9 4 6 10 25 14 25 6z m-63 -32 c-3 -3 -12 -4 -19 -1 -8 3
-5 6 6 6 11 1 17 -2 13 -5z m-700 -339 c0 -8 -4 -12 -9 -9 -4 3 -8 9 -8 15 0
5 4 9 8 9 5 0 9 -7 9 -15z m-27 -40 c-7 -8 -18 -15 -24 -15 -6 0 -2 7 8 15 25
19 32 19 16 0z"/>
<path d="M7482 1199 c-196 -52 -363 -171 -488 -345 -86 -120 -117 -216 -139
-424 -21 -196 -24 -180 35 -180 28 0 50 4 50 8 0 4 26 13 58 20 31 6 215 43
407 83 193 39 385 75 429 80 43 4 80 9 82 11 2 2 -23 71 -56 153 -32 83 -77
210 -100 284 -23 73 -57 161 -76 196 -19 35 -32 69 -28 78 4 11 -5 23 -28 37
-40 24 -53 24 -146 -1z"/>
</g>
</svg>
