<?xml version="1.0" standalone="no"?>
<!DOCTYPE svg PUBLIC "-//W3C//DTD SVG 20010904//EN"
 "http://www.w3.org/TR/2001/REC-SVG-20010904/DTD/svg10.dtd">
<svg version="1.0" xmlns="http://www.w3.org/2000/svg"
 width="45.000000pt" height="45.000000pt" viewBox="0 0 45.000000 45.000000"
 preserveAspectRatio="xMidYMid meet">

<g transform="translate(0.000000,45.000000) scale(0.100000,-0.100000)"
fill="#000000" stroke="none">
<path d="M26 424 c-13 -13 -16 -45 -16 -190 0 -96 4 -174 8 -174 14 0 92 85
92 101 0 21 27 74 45 89 20 16 11 46 -23 83 l-26 27 32 33 c18 18 32 36 32 40
0 4 -29 7 -64 7 -45 0 -69 -5 -80 -16z"/>
<path d="M220 432 c0 -15 65 -70 94 -79 21 -6 32 -18 38 -38 7 -27 64 -95 80
-95 4 0 8 42 8 94 0 124 -2 126 -126 126 -52 0 -94 -4 -94 -8z"/>
<path d="M390 145 l-33 -34 -34 29 c-41 36 -57 37 -95 5 -16 -14 -42 -28 -56
-31 -26 -6 -112 -80 -112 -96 0 -4 78 -8 174 -8 209 0 206 -2 206 101 0 38 -4
69 -8 69 -4 0 -23 -16 -42 -35z"/>
<path d="M20 30 c0 -5 5 -10 10 -10 6 0 10 5 10 10 0 6 -4 10 -10 10 -5 0 -10
-4 -10 -10z"/>
</g>
</svg>
