<?xml version="1.0" standalone="no"?>
<!DOCTYPE svg PUBLIC "-//W3C//DTD SVG 20010904//EN"
 "http://www.w3.org/TR/2001/REC-SVG-20010904/DTD/svg10.dtd">
<svg version="1.0" xmlns="http://www.w3.org/2000/svg"
 width="54.000000pt" height="54.000000pt" viewBox="0 0 54.000000 54.000000"
 preserveAspectRatio="xMidYMid meet">

<g transform="translate(0.000000,54.000000) scale(0.100000,-0.100000)"
fill="#000000" stroke="none">
<path d="M32 508 c-17 -17 -17 -459 0 -476 17 -17 459 -17 476 0 17 17 17 459
0 476 -17 17 -459 17 -476 0z m447 -65 c-19 -57 -49 -108 -119 -211 -34 -50
-37 -52 -81 -52 -51 0 -72 -12 -156 -93 -34 -33 -57 -48 -67 -44 -36 14 -29
38 33 102 64 67 91 115 91 163 0 25 12 37 99 95 92 61 164 95 203 97 15 0 15
-5 -3 -57z"/>
</g>
</svg>
