<?xml version="1.0" standalone="no"?>
<!DOCTYPE svg PUBLIC "-//W3C//DTD SVG 20010904//EN"
 "http://www.w3.org/TR/2001/REC-SVG-20010904/DTD/svg10.dtd">
<svg version="1.0" xmlns="http://www.w3.org/2000/svg"
 width="54.000000pt" height="54.000000pt" viewBox="0 0 54.000000 54.000000"
 preserveAspectRatio="xMidYMid meet">

<g transform="translate(0.000000,54.000000) scale(0.100000,-0.100000)"
fill="#000000" stroke="none">
<path d="M32 508 c-17 -17 -17 -459 0 -476 17 -17 459 -17 476 0 15 15 17 468
2 468 -5 0 -10 -8 -10 -17 0 -32 -40 -84 -146 -193 l-104 -106 37 -18 36 -17
-20 -20 -20 -21 -52 23 -52 22 -29 -28 c-16 -15 -30 -39 -32 -54 -3 -29 -39
-41 -62 -21 -33 26 -20 88 16 75 7 -3 28 9 46 28 31 32 32 35 18 63 -28 56
-30 81 -7 94 19 10 23 8 32 -19 6 -17 16 -31 22 -31 6 0 51 41 100 91 98 99
160 149 188 149 10 0 21 5 24 10 10 15 -448 13 -463 -2z"/>
</g>
</svg>
